<svg width="377" height="126" viewBox="0 0 377 126" fill="none" xmlns="http://www.w3.org/2000/svg">
<path d="M87.028 89.5148C87.532 89.5868 88.132 89.6348 88.828 89.6588C89.524 89.6828 90.172 89.6948 90.772 89.6948C91.228 89.6948 91.924 89.6948 92.86 89.6948C93.82 89.6948 94.876 89.6948 96.028 89.6948C97.204 89.6948 98.368 89.6948 99.52 89.6948C100.672 89.6948 101.704 89.6948 102.616 89.6948C103.528 89.6948 104.2 89.6948 104.632 89.6948C105.184 89.6948 105.844 89.6828 106.612 89.6588C107.38 89.6348 108.016 89.5868 108.52 89.5148V94.1588C108.04 94.1108 107.416 94.0868 106.648 94.0868C105.904 94.0628 105.208 94.0508 104.56 94.0508C104.176 94.0508 103.516 94.0508 102.58 94.0508C101.668 94.0508 100.624 94.0508 99.448 94.0508C98.296 94.0508 97.132 94.0508 95.956 94.0508C94.804 94.0508 93.76 94.0508 92.824 94.0508C91.888 94.0508 91.204 94.0508 90.772 94.0508C90.196 94.0508 89.56 94.0628 88.864 94.0868C88.192 94.1108 87.58 94.1348 87.028 94.1588V89.5148ZM111.544 99.9548C111.424 100.195 111.292 100.459 111.148 100.747C111.028 101.035 110.932 101.275 110.86 101.467C110.308 103.195 109.612 104.923 108.772 106.651C107.956 108.355 106.876 109.951 105.532 111.439C103.732 113.455 101.716 115.099 99.484 116.371C97.252 117.619 94.984 118.567 92.68 119.215L89.116 115.147C91.828 114.571 94.24 113.731 96.352 112.627C98.464 111.523 100.204 110.263 101.572 108.847C102.532 107.863 103.3 106.831 103.876 105.751C104.476 104.647 104.944 103.603 105.28 102.619C105.016 102.619 104.56 102.619 103.912 102.619C103.264 102.619 102.484 102.619 101.572 102.619C100.684 102.619 99.724 102.619 98.692 102.619C97.66 102.619 96.604 102.619 95.524 102.619C94.444 102.619 93.412 102.619 92.428 102.619C91.444 102.619 90.556 102.619 89.764 102.619C88.996 102.619 88.372 102.619 87.892 102.619C87.46 102.619 86.848 102.631 86.056 102.655C85.264 102.679 84.484 102.727 83.716 102.799V98.1188C84.484 98.1668 85.228 98.2148 85.948 98.2628C86.692 98.3108 87.34 98.3348 87.892 98.3348C88.252 98.3348 88.792 98.3348 89.512 98.3348C90.256 98.3348 91.108 98.3348 92.068 98.3348C93.028 98.3348 94.048 98.3348 95.128 98.3348C96.232 98.3348 97.324 98.3348 98.404 98.3348C99.508 98.3348 100.552 98.3348 101.536 98.3348C102.52 98.3348 103.372 98.3348 104.092 98.3348C104.812 98.3348 105.352 98.3348 105.712 98.3348C106.288 98.3348 106.804 98.2988 107.26 98.2268C107.74 98.1548 108.1 98.0708 108.34 97.9748L111.544 99.9548ZM117.232 103.123C120.472 102.283 123.4 101.311 126.016 100.207C128.656 99.0788 130.972 97.9028 132.964 96.6788C134.212 95.9108 135.46 95.0348 136.708 94.0508C137.98 93.0428 139.168 92.0108 140.272 90.9548C141.4 89.8988 142.348 88.8908 143.116 87.9308L147.004 91.6388C145.9 92.7188 144.688 93.8108 143.368 94.9148C142.072 96.0188 140.716 97.0748 139.3 98.0828C137.884 99.0908 136.48 100.015 135.088 100.855C133.72 101.647 132.184 102.463 130.48 103.303C128.8 104.143 127.024 104.935 125.152 105.679C123.28 106.423 121.396 107.083 119.5 107.659L117.232 103.123ZM132.208 98.9828L137.32 97.7948V113.995C137.32 114.523 137.332 115.099 137.356 115.723C137.38 116.347 137.416 116.923 137.464 117.451C137.512 118.003 137.572 118.423 137.644 118.711H131.956C132.004 118.423 132.04 118.003 132.064 117.451C132.112 116.923 132.148 116.347 132.172 115.723C132.196 115.099 132.208 114.523 132.208 113.995V98.9828ZM175.552 90.3428C175.888 90.8228 176.26 91.3868 176.668 92.0348C177.076 92.6828 177.46 93.3308 177.82 93.9788C178.204 94.6268 178.54 95.2268 178.828 95.7788L175.696 97.1828C175.36 96.4148 175.024 95.7308 174.688 95.1308C174.376 94.5308 174.052 93.9548 173.716 93.4028C173.38 92.8268 172.984 92.2268 172.528 91.6028L175.552 90.3428ZM180.268 88.3628C180.628 88.8428 181.012 89.3948 181.42 90.0188C181.852 90.6428 182.26 91.2788 182.644 91.9268C183.052 92.5508 183.388 93.1388 183.652 93.6908L180.628 95.1668C180.244 94.3988 179.872 93.7268 179.512 93.1508C179.176 92.5508 178.828 91.9868 178.468 91.4588C178.132 90.9068 177.736 90.3428 177.28 89.7668L180.268 88.3628ZM161.188 114.211C161.188 113.731 161.188 112.975 161.188 111.943C161.188 110.887 161.188 109.675 161.188 108.307C161.188 106.915 161.188 105.475 161.188 103.987C161.188 102.475 161.188 101.023 161.188 99.6308C161.188 98.2148 161.188 96.9668 161.188 95.8868C161.188 94.8068 161.188 94.0148 161.188 93.5108C161.188 92.8628 161.152 92.1308 161.08 91.3148C161.032 90.4988 160.948 89.7788 160.828 89.1548H166.444C166.372 89.7788 166.3 90.4748 166.228 91.2428C166.156 92.0108 166.12 92.7668 166.12 93.5108C166.12 94.1588 166.12 95.0588 166.12 96.2108C166.12 97.3628 166.12 98.6468 166.12 100.063C166.12 101.455 166.12 102.883 166.12 104.347C166.12 105.811 166.12 107.215 166.12 108.559C166.12 109.879 166.12 111.043 166.12 112.051C166.12 113.035 166.12 113.755 166.12 114.211C166.12 114.523 166.132 114.991 166.156 115.615C166.204 116.215 166.252 116.839 166.3 117.487C166.372 118.135 166.432 118.711 166.48 119.215H160.828C160.948 118.519 161.032 117.691 161.08 116.731C161.152 115.747 161.188 114.907 161.188 114.211ZM165.076 98.4788C166.276 98.7908 167.608 99.1988 169.072 99.7028C170.56 100.183 172.06 100.711 173.572 101.287C175.084 101.839 176.512 102.391 177.856 102.943C179.2 103.471 180.304 103.951 181.168 104.383L179.152 109.387C178.12 108.835 176.992 108.295 175.768 107.767C174.544 107.239 173.296 106.723 172.024 106.219C170.776 105.691 169.552 105.211 168.352 104.779C167.152 104.347 166.06 103.975 165.076 103.663V98.4788ZM213.28 89.4788C213.616 89.9828 213.976 90.5708 214.36 91.2428C214.768 91.8908 215.164 92.5508 215.548 93.2228C215.932 93.8708 216.268 94.4828 216.556 95.0588L213.424 96.3908C213.064 95.6228 212.728 94.9388 212.416 94.3388C212.104 93.7148 211.768 93.1148 211.408 92.5388C211.072 91.9388 210.688 91.3388 210.256 90.7388L213.28 89.4788ZM218.212 87.7508C218.596 88.2068 218.992 88.7588 219.4 89.4068C219.808 90.0548 220.204 90.7028 220.588 91.3508C220.972 91.9988 221.308 92.5868 221.596 93.1148L218.536 94.4828C218.152 93.7388 217.78 93.0668 217.42 92.4668C217.084 91.8668 216.736 91.2908 216.376 90.7388C216.016 90.1868 215.608 89.6108 215.152 89.0108L218.212 87.7508ZM197.62 88.7948C198.22 89.1068 198.892 89.4908 199.636 89.9468C200.38 90.4028 201.136 90.8828 201.904 91.3868C202.672 91.8668 203.404 92.3348 204.1 92.7908C204.796 93.2228 205.372 93.6068 205.828 93.9428L203.164 97.9028C202.66 97.5668 202.06 97.1708 201.364 96.7148C200.692 96.2588 199.972 95.7908 199.204 95.3108C198.46 94.8308 197.716 94.3748 196.972 93.9428C196.252 93.4868 195.604 93.0908 195.028 92.7548L197.62 88.7948ZM190.96 114.355C192.304 114.115 193.672 113.815 195.064 113.455C196.456 113.095 197.836 112.663 199.204 112.159C200.572 111.631 201.904 111.007 203.2 110.287C205.24 109.135 207.136 107.839 208.888 106.399C210.664 104.959 212.26 103.435 213.676 101.827C215.092 100.195 216.268 98.5148 217.204 96.7868L219.976 101.683C218.32 104.179 216.256 106.543 213.784 108.775C211.336 110.983 208.636 112.939 205.684 114.643C204.46 115.315 203.116 115.963 201.652 116.587C200.188 117.187 198.748 117.703 197.332 118.135C195.94 118.567 194.716 118.879 193.66 119.071L190.96 114.355ZM192.076 97.0028C192.676 97.3148 193.36 97.6988 194.128 98.1548C194.896 98.6108 195.664 99.0788 196.432 99.5588C197.2 100.015 197.92 100.471 198.592 100.927C199.288 101.359 199.864 101.743 200.32 102.079L197.692 106.111C197.164 105.751 196.552 105.343 195.856 104.887C195.184 104.431 194.464 103.963 193.696 103.483C192.952 103.003 192.208 102.547 191.464 102.115C190.744 101.659 190.084 101.275 189.484 100.963L192.076 97.0028ZM230.668 96.7868C230.98 96.8108 231.4 96.8468 231.928 96.8948C232.456 96.9188 233.008 96.9428 233.584 96.9668C234.16 96.9668 234.676 96.9668 235.132 96.9668C235.708 96.9668 236.452 96.9668 237.364 96.9668C238.276 96.9668 239.26 96.9668 240.316 96.9668C241.396 96.9668 242.464 96.9668 243.52 96.9668C244.576 96.9668 245.56 96.9668 246.472 96.9668C247.384 96.9668 248.14 96.9668 248.74 96.9668C249.172 96.9668 249.664 96.9668 250.216 96.9668C250.792 96.9428 251.224 96.9188 251.512 96.8948C251.488 97.1348 251.476 97.5068 251.476 98.0108C251.476 98.4908 251.476 98.9228 251.476 99.3068C251.476 99.5708 251.476 100.123 251.476 100.963C251.476 101.779 251.476 102.787 251.476 103.987C251.476 105.187 251.476 106.459 251.476 107.803C251.476 109.147 251.476 110.467 251.476 111.763C251.476 113.035 251.476 114.175 251.476 115.183C251.476 116.167 251.476 116.899 251.476 117.379C251.476 117.667 251.476 118.063 251.476 118.567C251.5 119.095 251.512 119.515 251.512 119.827H246.976C247 119.515 247.012 119.083 247.012 118.531C247.012 117.979 247.012 117.523 247.012 117.163C247.012 116.539 247.012 115.747 247.012 114.787C247.012 113.803 247.012 112.747 247.012 111.619C247.012 110.467 247.012 109.315 247.012 108.163C247.012 106.987 247.012 105.895 247.012 104.887C247.012 103.879 247.012 103.039 247.012 102.367C247.012 101.671 247.012 101.215 247.012 100.999C246.796 100.999 246.412 100.999 245.86 100.999C245.308 100.999 244.672 100.999 243.952 100.999C243.232 100.999 242.452 100.999 241.612 100.999C240.796 100.999 239.98 100.999 239.164 100.999C238.372 100.999 237.616 100.999 236.896 100.999C236.2 100.999 235.612 100.999 235.132 100.999C234.676 100.999 234.16 101.011 233.584 101.035C233.008 101.035 232.444 101.047 231.892 101.071C231.364 101.095 230.956 101.119 230.668 101.143V96.7868ZM231.604 105.247C232.084 105.271 232.684 105.295 233.404 105.319C234.148 105.343 234.856 105.355 235.528 105.355C235.816 105.355 236.32 105.355 237.04 105.355C237.784 105.355 238.636 105.355 239.596 105.355C240.58 105.355 241.588 105.355 242.62 105.355C243.652 105.355 244.624 105.355 245.536 105.355C246.472 105.355 247.264 105.355 247.912 105.355C248.56 105.355 248.956 105.355 249.1 105.355V109.423C248.932 109.423 248.524 109.423 247.876 109.423C247.252 109.423 246.472 109.423 245.536 109.423C244.624 109.423 243.652 109.423 242.62 109.423C241.588 109.423 240.58 109.423 239.596 109.423C238.636 109.423 237.796 109.423 237.076 109.423C236.356 109.423 235.84 109.423 235.528 109.423C234.856 109.423 234.136 109.435 233.368 109.459C232.624 109.459 232.036 109.471 231.604 109.495V105.247ZM230.272 114.067C230.584 114.091 231.016 114.127 231.568 114.175C232.12 114.199 232.732 114.211 233.404 114.211C233.764 114.211 234.364 114.211 235.204 114.211C236.044 114.211 237.004 114.211 238.084 114.211C239.188 114.211 240.328 114.211 241.504 114.211C242.68 114.211 243.796 114.211 244.852 114.211C245.932 114.211 246.856 114.211 247.624 114.211C248.392 114.211 248.896 114.211 249.136 114.211V118.387C248.824 118.387 248.272 118.387 247.48 118.387C246.688 118.387 245.752 118.387 244.672 118.387C243.616 118.387 242.512 118.387 241.36 118.387C240.208 118.387 239.092 118.387 238.012 118.387C236.932 118.387 235.972 118.387 235.132 118.387C234.316 118.387 233.728 118.387 233.368 118.387C232.864 118.387 232.3 118.399 231.676 118.423C231.052 118.447 230.584 118.471 230.272 118.495V114.067ZM286.324 86.7788C286.636 87.2348 286.96 87.7508 287.296 88.3268C287.656 88.9028 287.992 89.4788 288.304 90.0548C288.616 90.6068 288.88 91.0988 289.096 91.5308L286.072 92.7908C285.832 92.3108 285.556 91.7948 285.244 91.2428C284.956 90.6908 284.644 90.1388 284.308 89.5868C283.996 89.0108 283.684 88.4828 283.372 88.0028L286.324 86.7788ZM291.364 85.8788C291.676 86.3108 292.012 86.8148 292.372 87.3908C292.732 87.9668 293.08 88.5428 293.416 89.1188C293.752 89.6948 294.028 90.1988 294.244 90.6308L291.256 91.9268C290.848 91.1828 290.38 90.3548 289.852 89.4428C289.348 88.5308 288.856 87.7388 288.376 87.0668L291.364 85.8788ZM290.068 93.5828C289.9 93.9188 289.744 94.3268 289.6 94.8068C289.48 95.2628 289.372 95.6828 289.276 96.0668C289.06 96.9548 288.796 97.9508 288.484 99.0548C288.196 100.135 287.824 101.263 287.368 102.439C286.936 103.615 286.42 104.779 285.82 105.931C285.244 107.083 284.584 108.163 283.84 109.171C282.76 110.611 281.5 111.955 280.06 113.203C278.644 114.451 277.036 115.579 275.236 116.587C273.46 117.595 271.504 118.447 269.368 119.143L265.444 114.823C267.844 114.247 269.908 113.539 271.636 112.699C273.388 111.859 274.9 110.899 276.172 109.819C277.444 108.739 278.572 107.587 279.556 106.363C280.348 105.355 281.032 104.263 281.608 103.087C282.184 101.911 282.652 100.735 283.012 99.5588C283.372 98.3588 283.624 97.2428 283.768 96.2108C283.432 96.2108 282.844 96.2108 282.004 96.2108C281.164 96.2108 280.192 96.2108 279.088 96.2108C277.984 96.2108 276.82 96.2108 275.596 96.2108C274.372 96.2108 273.196 96.2108 272.068 96.2108C270.94 96.2108 269.92 96.2108 269.008 96.2108C268.12 96.2108 267.46 96.2108 267.028 96.2108C266.188 96.2108 265.384 96.2228 264.616 96.2468C263.848 96.2708 263.224 96.3068 262.744 96.3548V91.2788C263.104 91.3268 263.536 91.3748 264.04 91.4228C264.568 91.4708 265.096 91.5068 265.624 91.5308C266.176 91.5548 266.644 91.5668 267.028 91.5668C267.412 91.5668 267.964 91.5668 268.684 91.5668C269.404 91.5668 270.22 91.5668 271.132 91.5668C272.068 91.5668 273.04 91.5668 274.048 91.5668C275.08 91.5668 276.1 91.5668 277.108 91.5668C278.14 91.5668 279.1 91.5668 279.988 91.5668C280.876 91.5668 281.644 91.5668 282.292 91.5668C282.94 91.5668 283.408 91.5668 283.696 91.5668C284.056 91.5668 284.488 91.5548 284.992 91.5308C285.52 91.5068 286.024 91.4228 286.504 91.2788L290.068 93.5828Z" fill="#363B45"/>
<path d="M40.7822 37.9756L48.1905 58.5821H31.9303L25.793 40.7279H18.9112L15.3069 58.5821H0L11.5392 1.41272H35.5891C46.4202 1.41272 53.6379 8.40154 53.6379 18.1606C53.6379 27.0922 48.4811 34.2699 40.7822 37.9756ZM21.4624 28.0996H29.0886C34.5178 28.0996 37.9314 24.187 37.9314 19.6537C37.877 16.5686 35.8342 14.5808 31.7941 14.5808H24.1951L21.4624 28.0996Z" fill="#2206D8"/>
<path d="M40.7822 37.9756L48.1905 58.5821H31.9303L25.793 40.7279H18.9112L15.3069 58.5821H0L11.5392 1.41272H35.5891C46.4202 1.41272 53.6379 8.40154 53.6379 18.1606C53.6379 27.0922 48.4811 34.2699 40.7822 37.9756ZM21.4624 28.0996H29.0886C34.5178 28.0996 37.9314 24.187 37.9314 19.6537C37.877 16.5686 35.8342 14.5808 31.7941 14.5808H24.1951L21.4624 28.0996Z" fill="#2205D9"/>
<path d="M69.0724 1.40369H84.5337L72.9945 58.5731H57.5332L69.0724 1.40369Z" fill="#2206D8"/>
<path d="M69.0724 1.40369H84.5337L72.9945 58.5731H57.5332L69.0724 1.40369Z" fill="#2205D9"/>
<path d="M144.643 25.0055C144.643 43.939 129.481 58.5821 109.762 58.5821H85.7209L97.2602 1.41272H119.703C134.856 1.41272 144.634 11.3427 144.634 25.0055H144.643ZM129.045 25.8779C129.045 18.9431 124.433 14.7877 116.68 14.7877H109.843L103.652 45.1893H110.715C121.174 45.1893 129.045 35.9518 129.045 25.8779Z" fill="#2206D8"/>
<path d="M144.643 25.0055C144.643 43.939 129.481 58.5821 109.762 58.5821H85.7209L97.2602 1.41272H119.703C134.856 1.41272 144.634 11.3427 144.634 25.0055H144.643ZM129.045 25.8779C129.045 18.9431 124.433 14.7877 116.68 14.7877H109.843L103.652 45.1893H110.715C121.174 45.1893 129.045 35.9518 129.045 25.8779Z" fill="#2205D9"/>
<path d="M173.714 13.9781L171.726 23.7732H190.764L188.349 35.8349H169.274L167.232 45.8818H189.22L186.642 58.5821H149.446L160.985 1.41272H197.437L194.886 13.9781H173.705H173.714Z" fill="#2206D8"/>
<path d="M173.714 13.9781L171.726 23.7732H190.764L188.349 35.8349H169.274L167.232 45.8818H189.22L186.642 58.5821H149.446L160.985 1.41272H197.437L194.886 13.9781H173.705H173.714Z" fill="#2205D9"/>
<path d="M212.025 59.1758L214.631 45.2702C218.344 45.3512 220.305 45.4411 222.184 45.4411C228.004 45.4411 233.115 43.3994 235.448 31.6795L241.449 0.972046H257.219L250.855 33.5504C247.36 51.3866 239.888 59.2928 224.871 59.2928C221.467 59.2928 216.918 59.2028 212.025 59.1848V59.1758Z" fill="#2206D8"/>
<path d="M212.025 59.1758L214.631 45.2702C218.344 45.3512 220.305 45.4411 222.184 45.4411C228.004 45.4411 233.115 43.3994 235.448 31.6795L241.449 0.972046H257.219L250.855 33.5504C247.36 51.3866 239.888 59.2928 224.871 59.2928C221.467 59.2928 216.918 59.2028 212.025 59.1848V59.1758Z" fill="#2205D9"/>
<path d="M258.345 34.584C258.345 14.3823 274.642 0 295.069 0C311.257 0 322.033 10.7305 322.033 25.3467C322.033 45.6114 305.855 59.9936 285.418 59.9936C269.176 59.9936 258.345 49.2092 258.345 34.593V34.584ZM306.173 26.7678C306.173 19.1134 300.898 14.1394 292.899 14.1394C282.114 14.1394 274.215 23.3858 274.215 33.1719C274.215 40.7723 279.49 45.8632 287.543 45.8632C298.447 45.8632 306.173 36.6168 306.173 26.7768V26.7678Z" fill="#2206D8"/>
<path d="M258.345 34.584C258.345 14.3823 274.642 0 295.069 0C311.257 0 322.033 10.7305 322.033 25.3467C322.033 45.6114 305.855 59.9936 285.418 59.9936C269.176 59.9936 258.345 49.2092 258.345 34.593V34.584ZM306.173 26.7678C306.173 19.1134 300.898 14.1394 292.899 14.1394C282.114 14.1394 274.215 23.3858 274.215 33.1719C274.215 40.7723 279.49 45.8632 287.543 45.8632C298.447 45.8632 306.173 36.6168 306.173 26.7768V26.7678Z" fill="#2205D9"/>
<path d="M367.331 28.6841C371.235 30.8968 373.387 34.9534 373.387 39.6845C373.387 50.9817 363.291 58.5731 351.788 58.5731H325.151L336.69 1.40369H361.502C370.854 1.40369 377 7.08824 377 14.3289C377 20.5441 372.933 25.7609 367.313 28.6751L367.331 28.6841ZM351.352 46.3225C355.356 46.3225 358.497 43.3453 358.497 39.3247C358.497 36.5724 356.736 34.6296 353.595 34.6296H344.634L342.255 46.3225H351.352ZM355.174 24.007C359.033 24.007 361.875 21.2187 361.875 17.3151C361.82 14.6347 360.195 12.8897 357.217 12.8897H349.046L346.786 24.007H355.174Z" fill="#2206D8"/>
<path d="M367.331 28.6841C371.235 30.8968 373.387 34.9534 373.387 39.6845C373.387 50.9817 363.291 58.5731 351.788 58.5731H325.151L336.69 1.40369H361.502C370.854 1.40369 377 7.08824 377 14.3289C377 20.5441 372.933 25.7609 367.313 28.6751L367.331 28.6841ZM351.352 46.3225C355.356 46.3225 358.497 43.3453 358.497 39.3247C358.497 36.5724 356.736 34.6296 353.595 34.6296H344.634L342.255 46.3225H351.352ZM355.174 24.007C359.033 24.007 361.875 21.2187 361.875 17.3151C361.82 14.6347 360.195 12.8897 357.217 12.8897H349.046L346.786 24.007H355.174Z" fill="#2205D9"/>
</svg>
